<?xml version="1.0" encoding="UTF-8"?>
<!DOCTYPE svg PUBLIC "-//W3C//DTD SVG 1.1//EN" "http://www.w3.org/Graphics/SVG/1.1/DTD/svg11.dtd">
<svg version="1.2" width="30mm" height="30mm" viewBox="0 0 3000 3000" preserveAspectRatio="xMidYMid" fill-rule="evenodd" stroke-width="28.222" stroke-linejoin="round" xmlns="http://www.w3.org/2000/svg" xmlns:ooo="http://xml.openoffice.org/svg/export" xmlns:xlink="http://www.w3.org/1999/xlink" xmlns:presentation="http://sun.com/xmlns/staroffice/presentation" xmlns:smil="http://www.w3.org/2001/SMIL20/" xmlns:anim="urn:oasis:names:tc:opendocument:xmlns:animation:1.0" xml:space="preserve">
 <defs class="ClipPathGroup">
  <clipPath id="presentation_clip_path" clipPathUnits="userSpaceOnUse">
   <rect x="0" y="0" width="3000" height="3000"/>
  </clipPath>
  <clipPath id="presentation_clip_path_shrink" clipPathUnits="userSpaceOnUse">
   <rect x="3" y="3" width="2994" height="2994"/>
  </clipPath>
 </defs>
 <defs class="TextShapeIndex">
  <g ooo:slide="id1" ooo:id-list="id3 id4 id5"/>
 </defs>
 <defs class="EmbeddedBulletChars">
  <g id="bullet-char-template-57356" transform="scale(0.00048828125,-0.00048828125)">
   <path d="M 580,1141 L 1163,571 580,0 -4,571 580,1141 Z"/>
  </g>
  <g id="bullet-char-template-57354" transform="scale(0.00048828125,-0.00048828125)">
   <path d="M 8,1128 L 1137,1128 1137,0 8,0 8,1128 Z"/>
  </g>
  <g id="bullet-char-template-10146" transform="scale(0.00048828125,-0.00048828125)">
   <path d="M 174,0 L 602,739 174,1481 1456,739 174,0 Z M 1358,739 L 309,1346 659,739 1358,739 Z"/>
  </g>
  <g id="bullet-char-template-10132" transform="scale(0.00048828125,-0.00048828125)">
   <path d="M 2015,739 L 1276,0 717,0 1260,543 174,543 174,936 1260,936 717,1481 1274,1481 2015,739 Z"/>
  </g>
  <g id="bullet-char-template-10007" transform="scale(0.00048828125,-0.00048828125)">
   <path d="M 0,-2 C -7,14 -16,27 -25,37 L 356,567 C 262,823 215,952 215,954 215,979 228,992 255,992 264,992 276,990 289,987 310,991 331,999 354,1012 L 381,999 492,748 772,1049 836,1024 860,1049 C 881,1039 901,1025 922,1006 886,937 835,863 770,784 769,783 710,716 594,584 L 774,223 C 774,196 753,168 711,139 L 727,119 C 717,90 699,76 672,76 641,76 570,178 457,381 L 164,-76 C 142,-110 111,-127 72,-127 30,-127 9,-110 8,-76 1,-67 -2,-52 -2,-32 -2,-23 -1,-13 0,-2 Z"/>
  </g>
  <g id="bullet-char-template-10004" transform="scale(0.00048828125,-0.00048828125)">
   <path d="M 285,-33 C 182,-33 111,30 74,156 52,228 41,333 41,471 41,549 55,616 82,672 116,743 169,778 240,778 293,778 328,747 346,684 L 369,508 C 377,444 397,411 428,410 L 1163,1116 C 1174,1127 1196,1133 1229,1133 1271,1133 1292,1118 1292,1087 L 1292,965 C 1292,929 1282,901 1262,881 L 442,47 C 390,-6 338,-33 285,-33 Z"/>
  </g>
  <g id="bullet-char-template-9679" transform="scale(0.00048828125,-0.00048828125)">
   <path d="M 813,0 C 632,0 489,54 383,161 276,268 223,411 223,592 223,773 276,916 383,1023 489,1130 632,1184 813,1184 992,1184 1136,1130 1245,1023 1353,916 1407,772 1407,592 1407,412 1353,268 1245,161 1136,54 992,0 813,0 Z"/>
  </g>
  <g id="bullet-char-template-8226" transform="scale(0.00048828125,-0.00048828125)">
   <path d="M 346,457 C 273,457 209,483 155,535 101,586 74,649 74,723 74,796 101,859 155,911 209,963 273,989 346,989 419,989 480,963 531,910 582,859 608,796 608,723 608,648 583,586 532,535 482,483 420,457 346,457 Z"/>
  </g>
  <g id="bullet-char-template-8211" transform="scale(0.00048828125,-0.00048828125)">
   <path d="M -4,459 L 1135,459 1135,606 -4,606 -4,459 Z"/>
  </g>
  <g id="bullet-char-template-61548" transform="scale(0.00048828125,-0.00048828125)">
   <path d="M 173,740 C 173,903 231,1043 346,1159 462,1274 601,1332 765,1332 928,1332 1067,1274 1183,1159 1299,1043 1357,903 1357,740 1357,577 1299,437 1183,322 1067,206 928,148 765,148 601,148 462,206 346,322 231,437 173,577 173,740 Z"/>
  </g>
 </defs>
 <defs class="TextEmbeddedBitmaps"/>
 <g>
  <g id="id2" class="Master_Slide">
   <g id="bg-id2" class="Background"/>
   <g id="bo-id2" class="BackgroundObjects"/>
  </g>
 </g>
 <g class="SlideGroup">
  <g>
   <g id="container-id1">
    <g id="id1" class="Slide" clip-path="url(#presentation_clip_path)">
     <g class="Page">
      <g class="com.sun.star.drawing.ClosedBezierShape">
       <g id="id3">
        <rect class="BoundingBox" stroke="none" fill="none" x="127" y="1704" width="2795" height="659"/>
        <path fill="rgb(255,255,255)" stroke="none" d="M 1067,1891 C 1069,1888 1071,1885 1071,1882 1070,1881 1068,1880 1066,1880 1056,1880 1041,1896 1035,1902 L 1035,1903 C 1028,1909 1020,1918 1016,1929 1019,1926 1022,1924 1025,1922 1039,1912 1053,1902 1067,1891 Z M 1067,1891 L 1067,1891 Z M 467,1965 C 474,1965 479,1967 483,1973 485,1976 487,1980 489,1984 493,1991 502,1993 509,1993 530,1993 561,1969 576,1956 593,1944 621,1920 621,1897 621,1891 602,1889 597,1888 579,1888 561,1895 545,1905 534,1912 523,1921 512,1929 497,1940 482,1953 467,1965 Z M 467,1965 L 467,1965 Z M 140,2356 C 133,2353 129,2347 127,2340 L 127,2339 127,2338 C 127,2327 131,2318 138,2309 143,2302 147,2294 153,2286 154,2284 157,2281 158,2278 179,2240 206,2202 234,2166 273,2116 314,2067 357,2019 390,1980 425,1942 460,1904 517,1840 575,1779 634,1717 639,1711 647,1705 655,1704 L 656,1704 C 663,1704 667,1711 668,1717 L 668,1718 668,1718 C 668,1722 659,1732 656,1735 645,1747 635,1759 624,1771 589,1810 553,1850 517,1890 518,1889 519,1889 520,1888 530,1883 541,1878 551,1872 L 552,1872 C 574,1862 599,1854 624,1853 648,1853 665,1864 667,1888 L 667,1889 C 667,1908 645,1932 633,1946 622,1957 611,1966 598,1975 584,1985 570,1994 556,2002 L 555,2002 C 533,2013 503,2026 477,2027 473,2027 468,2026 464,2024 461,2022 458,2019 455,2017 448,2011 446,2003 446,1995 446,1990 446,1986 447,1982 420,2005 395,2030 371,2055 338,2091 308,2128 279,2165 257,2195 235,2226 215,2257 207,2270 194,2292 190,2306 L 190,2334 C 190,2343 187,2350 179,2355 175,2359 168,2361 162,2362 L 161,2362 161,2362 C 157,2362 154,2362 151,2361 147,2361 143,2359 140,2356 Z M 140,2356 L 140,2356 Z M 1918,1818 C 1918,1840 1899,1845 1880,1845 1861,1845 1842,1839 1842,1818 1842,1796 1860,1789 1880,1789 1900,1789 1918,1796 1918,1818 Z M 1918,1818 L 1918,1818 Z M 1757,1960 C 1748,1966 1739,1972 1730,1978 1692,2002 1642,2028 1595,2029 1561,2029 1542,2013 1540,1980 L 1540,1979 C 1540,1961 1544,1944 1551,1928 1543,1931 1532,1937 1528,1940 1517,1946 1507,1953 1496,1960 1492,1962 1487,1966 1482,1968 1470,1975 1457,1983 1444,1989 1431,1996 1419,2003 1406,2010 1396,2016 1368,2032 1357,2032 1344,2032 1336,2025 1336,2012 1336,1997 1349,1978 1358,1967 L 1358,1967 C 1367,1957 1376,1946 1385,1936 1386,1935 1387,1934 1388,1932 1352,1954 1315,1976 1278,1997 1270,2003 1230,2027 1221,2028 L 1221,2028 1220,2028 C 1210,2028 1202,2022 1202,2012 L 1202,2009 1204,2007 C 1208,2004 1212,2000 1215,1996 1220,1990 1225,1985 1229,1980 1236,1973 1243,1966 1250,1959 1260,1949 1289,1916 1293,1900 1292,1899 1291,1899 1289,1899 1288,1899 1286,1898 1284,1898 1264,1915 1243,1931 1222,1947 1208,1959 1192,1970 1176,1980 1133,2009 1080,2034 1027,2036 996,2036 974,2023 967,1996 928,2018 882,2038 836,2038 822,2038 810,2032 800,2023 L 800,2023 C 790,2013 785,2001 784,1988 L 784,1987 C 784,1972 798,1954 808,1942 815,1935 822,1928 829,1921 833,1917 836,1913 840,1909 839,1909 839,1909 838,1909 832,1910 825,1911 819,1912 808,1913 798,1915 787,1915 L 786,1915 C 744,1950 690,1991 639,2012 L 638,2013 637,2013 C 630,2013 617,2012 617,2003 617,1996 621,1990 625,1985 L 626,1984 628,1984 C 647,1976 667,1965 684,1954 711,1938 736,1920 760,1901 758,1898 757,1895 756,1891 L 756,1891 C 756,1874 775,1853 785,1842 793,1834 802,1826 812,1820 819,1816 826,1812 834,1811 L 835,1811 835,1811 C 847,1811 854,1817 857,1828 L 857,1828 857,1829 C 857,1840 850,1852 841,1862 845,1862 848,1861 851,1861 856,1860 862,1859 868,1858 L 868,1858 869,1858 C 884,1858 899,1863 899,1881 899,1901 876,1923 862,1935 851,1945 831,1964 829,1979 829,1985 833,1991 836,1995 842,1999 849,2002 855,2003 890,2003 936,1979 965,1961 970,1935 989,1909 1007,1889 1026,1870 1057,1842 1085,1841 1094,1841 1102,1845 1109,1851 1114,1856 1118,1862 1119,1871 L 1119,1871 1119,1872 C 1119,1885 1112,1896 1103,1904 L 1102,1905 C 1097,1908 1092,1913 1087,1917 1082,1921 1077,1925 1072,1929 1054,1944 1033,1956 1012,1966 1012,1976 1017,1984 1025,1990 1033,1995 1042,1997 1052,1997 1088,1997 1144,1964 1173,1946 1185,1938 1197,1929 1208,1921 1233,1904 1257,1886 1281,1868 L 1282,1867 1282,1867 C 1285,1866 1287,1866 1289,1866 1296,1861 1304,1857 1314,1857 1336,1857 1345,1872 1347,1893 1347,1906 1337,1919 1329,1929 L 1329,1929 C 1326,1932 1324,1934 1321,1937 L 1403,1889 C 1415,1883 1436,1872 1450,1872 1464,1872 1476,1877 1477,1893 1477,1906 1457,1927 1449,1936 1442,1944 1434,1953 1426,1962 1450,1948 1475,1934 1499,1920 1517,1910 1535,1899 1554,1891 1572,1882 1599,1871 1619,1868 L 1619,1868 C 1628,1868 1630,1877 1630,1884 L 1630,1885 1629,1886 C 1628,1890 1627,1893 1625,1896 1622,1899 1620,1903 1618,1906 1615,1911 1611,1916 1608,1921 1599,1935 1588,1954 1588,1971 1588,1987 1595,1996 1612,1996 1644,1996 1699,1962 1725,1945 1738,1937 1752,1928 1765,1918 1775,1911 1784,1904 1794,1897 1806,1884 1822,1867 1840,1863 L 1840,1863 1841,1863 C 1850,1863 1858,1866 1858,1876 1858,1885 1837,1908 1831,1915 1819,1929 1809,1946 1808,1965 1808,1981 1814,1991 1832,1991 1855,1991 1935,1937 1955,1923 1963,1917 1971,1910 1980,1904 1995,1893 2011,1883 2027,1873 L 2031,1870 C 2032,1868 2034,1867 2035,1867 L 2041,1863 2043,1863 C 2054,1863 2056,1873 2054,1882 L 2053,1884 2051,1885 C 2048,1887 2045,1889 2042,1891 2023,1907 2004,1923 1985,1939 1978,1947 1972,1958 1971,1969 1971,1976 1972,1988 1981,1990 1988,1990 2003,1983 2009,1980 2018,1976 2026,1972 2034,1967 2041,1963 2048,1959 2054,1954 2071,1942 2093,1913 2106,1896 2115,1885 2137,1857 2153,1857 2162,1857 2169,1862 2169,1872 L 2169,1873 C 2169,1878 2164,1885 2161,1889 2153,1897 2145,1905 2137,1913 2127,1922 2110,1940 2110,1954 2110,1965 2113,1974 2119,1982 L 2120,1983 C 2124,1989 2129,1994 2137,1995 2168,1995 2220,1962 2245,1946 2257,1937 2270,1928 2282,1919 2305,1902 2328,1885 2352,1868 L 2352,1867 2353,1867 C 2355,1867 2357,1866 2359,1866 2366,1861 2374,1857 2383,1857 2405,1857 2416,1872 2417,1893 2417,1906 2407,1919 2399,1929 L 2399,1929 C 2396,1932 2394,1934 2391,1937 L 2473,1889 C 2485,1883 2506,1872 2520,1872 2534,1872 2547,1877 2548,1893 2548,1906 2528,1927 2519,1936 2512,1944 2504,1953 2496,1962 2520,1948 2545,1934 2569,1920 2587,1910 2606,1899 2624,1891 2642,1882 2668,1871 2689,1868 L 2689,1868 C 2698,1868 2700,1877 2700,1884 L 2700,1885 2700,1886 C 2698,1890 2696,1893 2694,1896 2692,1899 2690,1903 2688,1906 2685,1911 2682,1916 2678,1921 2669,1935 2658,1954 2658,1971 2658,1987 2665,1996 2682,1996 2714,1996 2769,1962 2795,1945 2809,1937 2822,1928 2835,1918 2858,1902 2880,1885 2903,1869 2906,1867 2909,1866 2912,1866 2918,1866 2921,1872 2921,1877 L 2921,1877 2921,1878 C 2921,1883 2920,1886 2916,1890 L 2916,1890 C 2894,1908 2872,1926 2849,1943 2834,1955 2817,1967 2800,1978 2762,2002 2712,2028 2665,2029 2632,2029 2611,2013 2610,1980 L 2610,1979 C 2610,1961 2614,1944 2621,1928 2612,1931 2602,1937 2598,1940 2587,1946 2577,1953 2566,1960 2561,1962 2557,1966 2552,1968 2539,1975 2527,1983 2514,1989 2501,1996 2489,2003 2476,2010 2466,2016 2438,2032 2427,2032 2414,2032 2405,2025 2405,2012 2405,1997 2420,1978 2428,1967 L 2428,1967 C 2437,1957 2446,1946 2455,1936 2456,1935 2457,1934 2458,1932 2422,1954 2385,1976 2349,1997 2340,2003 2300,2027 2291,2028 L 2291,2028 C 2280,2028 2273,2022 2273,2012 L 2273,2009 2274,2007 C 2278,2004 2282,2000 2285,1996 2290,1990 2295,1985 2300,1980 2306,1973 2313,1966 2320,1959 2329,1949 2359,1916 2363,1900 2362,1899 2360,1899 2359,1899 2357,1899 2356,1898 2354,1898 2302,1940 2181,2037 2113,2037 2080,2037 2068,2008 2063,1982 2047,1996 2027,2007 2008,2016 1994,2022 1974,2030 1960,2031 L 1959,2031 C 1948,2031 1939,2026 1932,2018 1923,2011 1918,2001 1917,1990 1917,1989 1917,1989 1917,1989 1891,2007 1852,2029 1823,2029 1806,2029 1790,2024 1777,2015 1764,2007 1755,1995 1754,1979 L 1754,1979 C 1754,1973 1755,1966 1757,1960 Z"/>
       </g>
      </g>
      <g class="Group">
       <g class="com.sun.star.drawing.ClosedBezierShape">
        <g id="id4">
         <rect class="BoundingBox" stroke="none" fill="none" x="203" y="513" width="1800" height="1097"/>
         <path fill="rgb(255,255,255)" stroke="none" d="M 1998,564 L 2001,594 C 2001,642 1981,670 1942,676 1903,684 1870,703 1844,735 1754,844 1665,927 1579,983 L 1285,1146 C 1136,1228 1054,1284 1038,1312 L 1030,1335 C 1030,1353 1051,1366 1093,1375 L 1224,1396 C 1254,1404 1304,1410 1373,1416 1396,1416 1415,1418 1429,1421 1444,1424 1453,1427 1457,1431 1474,1448 1482,1470 1482,1500 1482,1549 1448,1579 1378,1591 L 1310,1597 C 1291,1597 1274,1596 1259,1593 1244,1590 1231,1588 1221,1588 1211,1588 1203,1588 1197,1588 1176,1591 1163,1591 1160,1586 1151,1586 1141,1588 1133,1590 1124,1593 1114,1594 1103,1595 1092,1596 1084,1596 1077,1597 1068,1597 1061,1596 1058,1594 1050,1591 1043,1590 1038,1590 1032,1590 1027,1590 1024,1590 L 987,1597 C 973,1597 958,1595 943,1590 928,1585 916,1583 909,1583 903,1583 896,1585 890,1588 883,1595 860,1597 823,1597 L 790,1602 756,1609 C 736,1609 715,1597 692,1575 679,1562 667,1545 656,1525 651,1515 634,1510 605,1510 594,1510 583,1509 574,1507 565,1506 555,1503 544,1499 514,1488 499,1470 499,1444 499,1429 505,1413 516,1394 529,1371 557,1353 600,1340 L 730,1300 876,1250 C 940,1226 1003,1196 1062,1161 L 1303,1030 C 1394,980 1463,939 1510,907 1597,847 1657,797 1691,755 L 1694,743 C 1694,726 1679,714 1651,708 1628,705 1607,716 1588,741 1581,752 1570,760 1554,765 1539,769 1517,772 1489,772 1469,772 1451,774 1437,780 1421,786 1403,796 1383,811 1368,822 1349,828 1327,828 1322,828 1313,827 1299,825 L 1278,823 C 1261,823 1242,827 1222,836 L 1179,852 C 1151,856 1119,862 1083,870 1047,879 1017,886 994,893 895,924 785,940 665,940 L 580,937 C 547,937 512,933 476,927 439,921 397,912 348,901 264,883 217,867 206,853 L 204,846 C 204,839 211,829 227,818 L 259,798 C 295,771 320,758 335,758 345,758 351,763 354,775 357,786 353,801 343,819 L 328,850 C 328,855 333,859 342,862 420,881 513,890 622,890 711,890 790,882 860,865 948,845 1061,810 1201,760 L 1417,684 C 1452,670 1518,647 1615,617 1632,614 1654,604 1681,587 1707,570 1730,562 1749,562 L 1813,564 C 1832,564 1853,556 1873,541 1898,522 1922,514 1943,514 1970,514 1989,530 1998,564 Z"/>
        </g>
       </g>
       <g class="com.sun.star.drawing.ClosedBezierShape">
        <g id="id5">
         <rect class="BoundingBox" stroke="none" fill="none" x="1631" y="508" width="1214" height="1096"/>
         <path fill="rgb(255,255,255)" stroke="none" d="M 2838,1550 C 2825,1580 2791,1603 2730,1603 2706,1603 2681,1599 2654,1594 2585,1578 2494,1542 2385,1486 2206,1395 2112,1289 2005,1230 1991,1225 1978,1203 1962,1203 1959,1207 1956,1212 1954,1215 1944,1229 1938,1241 1934,1253 1919,1289 1907,1316 1896,1334 L 1887,1375 C 1861,1466 1855,1447 1826,1536 1819,1551 1805,1566 1784,1580 1764,1595 1744,1603 1723,1603 1683,1603 1654,1576 1634,1522 L 1631,1507 C 1631,1498 1640,1475 1658,1440 1671,1384 1671,1328 1687,1268 1694,1245 1702,1221 1713,1196 1724,1172 1739,1143 1757,1112 1797,1042 1832,998 1863,977 1888,963 1902,949 1905,938 L 1905,911 1902,894 1901,871 C 1901,848 1914,831 1941,822 1978,810 2006,794 2027,774 2037,767 2044,761 2050,756 2068,741 2092,721 2120,695 2131,686 2142,676 2153,666 2171,651 2185,640 2196,632 L 2266,586 C 2338,534 2413,508 2490,508 2553,508 2604,532 2643,581 2650,590 2654,604 2656,622 2656,649 2642,683 2615,722 L 2563,790 2543,821 2526,830 C 2512,833 2493,852 2470,886 2464,893 2443,903 2408,915 2386,928 2336,953 2258,990 2223,1002 2176,1016 2118,1030 2075,1041 2050,1049 2044,1055 2024,1077 2015,1092 2015,1100 2015,1107 2017,1113 2022,1118 2153,1252 2532,1536 2727,1536 2762,1536 2779,1530 2779,1517 2779,1507 2772,1485 2760,1450 2758,1441 2757,1436 2757,1433 2757,1426 2761,1422 2768,1422 2771,1423 2773,1424 2776,1425 2779,1426 2782,1429 2787,1431 2825,1460 2844,1490 2844,1521 2844,1531 2842,1541 2838,1550 Z M 2838,1550 L 2838,1550 Z M 2484,588 C 2429,588 2354,619 2261,681 2208,718 2159,774 2114,852 2078,917 2060,964 2060,994 2060,996 2060,997 2061,999 2061,1002 2062,1003 2063,1004 2069,1008 2113,996 2196,967 2287,934 2360,897 2414,854 2527,770 2583,706 2583,661 2583,613 2550,588 2484,588 Z"/>
        </g>
       </g>
      </g>
     </g>
    </g>
   </g>
  </g>
 </g>
</svg>